<?xml version="1.0" standalone="no"?>
<!DOCTYPE svg PUBLIC "-//W3C//DTD SVG 20010904//EN"
 "http://www.w3.org/TR/2001/REC-SVG-20010904/DTD/svg10.dtd">
<svg version="1.0" xmlns="http://www.w3.org/2000/svg"
 width="640.000000pt" height="640.000000pt" viewBox="0 0 640.000000 640.000000"
 preserveAspectRatio="xMidYMid meet">

<g transform="translate(0.000000,640.000000) scale(0.100000,-0.100000)"
fill="#000000" stroke="none">
<path d="M2317 5690 c-195 -50 -323 -249 -289 -451 7 -39 22 -88 33 -111 26
-51 98 -129 142 -152 l32 -18 -21 -112 c-12 -61 -25 -140 -28 -176 l-7 -66
-41 39 c-60 57 -110 77 -194 77 -56 0 -81 -5 -122 -26 -47 -23 -103 -78 -113
-112 -3 -9 -40 -14 -139 -16 -157 -3 -202 -13 -328 -72 l-93 -43 -42 30 c-158
111 -375 21 -434 -180 -38 -131 35 -286 164 -349 l33 -16 0 -99 c0 -200 72
-351 208 -438 l42 -27 -46 -53 c-198 -231 -231 -502 -72 -585 l26 -14 -15 -47
c-39 -128 31 -297 158 -378 119 -77 281 -67 367 21 23 24 42 50 42 58 0 10 11
11 53 5 72 -12 211 6 299 37 l72 26 15 -23 c33 -50 127 -141 175 -168 132 -75
307 -80 415 -13 46 28 102 86 123 127 11 22 21 41 23 43 1 1 15 -5 32 -13 82
-41 194 -59 363 -60 172 0 249 12 363 55 29 11 53 16 55 11 2 -6 20 -36 41
-68 55 -86 129 -129 243 -143 146 -18 270 30 389 151 l76 76 89 -30 c81 -28
100 -30 209 -29 66 0 127 2 137 4 10 2 26 -11 40 -32 14 -20 47 -47 80 -64
113 -57 276 -30 371 62 73 70 125 209 113 301 -6 48 -6 48 34 75 59 39 85 95
84 181 -1 113 -58 238 -171 375 l-54 65 23 14 c57 36 137 131 171 202 43 91
57 155 57 262 l0 82 43 18 c68 27 113 72 149 145 29 58 33 76 32 142 -1 123
-60 216 -172 268 -98 46 -208 34 -277 -29 -20 -18 -22 -18 -55 4 -119 78 -295
130 -451 131 l-107 1 -11 32 c-16 43 -91 108 -148 127 -117 40 -251 -4 -319
-103 l-24 -36 0 45 c0 40 -33 263 -45 300 -3 10 10 23 40 39 127 67 205 244
176 398 -18 96 -42 145 -106 212 -79 83 -150 113 -265 114 -102 0 -171 -26
-243 -92 l-45 -41 -76 30 c-157 63 -222 74 -431 74 -208 0 -288 -14 -417 -72
l-60 -27 -41 38 c-84 77 -223 114 -330 87z m220 -112 c45 -27 84 -68 112 -116
6 -10 20 -6 61 18 108 64 307 110 475 110 143 0 326 -46 452 -114 l62 -33 35
51 c44 63 96 100 128 91 17 -5 19 -4 9 4 -21 14 44 25 117 19 70 -5 118 -27
171 -80 43 -42 78 -98 62 -98 -5 0 -13 5 -16 10 -4 6 -11 8 -16 5 -5 -3 -6 1
-3 9 4 10 -8 24 -37 41 -23 15 -47 28 -53 30 -6 1 -18 4 -26 8 -75 27 -127 31
-179 13 -24 -9 -48 -13 -54 -9 -5 3 -7 1 -3 -5 3 -6 -2 -13 -12 -16 -10 -4
-39 -26 -64 -50 -45 -44 -46 -44 -82 -32 -20 7 -33 16 -29 21 5 4 1 6 -8 2 -9
-3 -20 -2 -25 2 -63 55 -477 100 -634 69 -82 -16 -190 -50 -185 -58 2 -3 -11
-6 -30 -5 -18 0 -32 -2 -29 -6 2 -4 -10 -12 -27 -19 -24 -10 -35 -10 -55 0
-13 7 -24 17 -24 22 0 13 -73 83 -88 84 -28 2 -33 4 -28 13 4 5 -4 7 -16 3
-11 -3 -19 -1 -16 4 4 5 -29 9 -75 9 -53 0 -82 -4 -84 -12 -2 -7 -10 -10 -16
-7 -18 6 -79 -34 -71 -48 4 -6 3 -8 -4 -4 -6 3 -13 2 -17 -4 -4 -6 -11 -7 -17
-4 -6 4 -5 -3 2 -16 7 -12 8 -20 2 -16 -29 17 -84 -138 -77 -219 3 -33 1 -45
-5 -35 -23 36 -4 230 22 230 5 0 7 4 4 8 -8 13 54 93 66 85 7 -3 8 -1 4 5 -9
14 32 41 98 64 73 26 154 18 223 -24z m-90 -94 c-3 -3 -12 -4 -19 -1 -8 3 -5
6 6 6 11 1 17 -2 13 -5z m-57 -14 c-8 -5 -24 -9 -35 -9 -16 1 -16 2 5 9 35 11
48 11 30 0z m1607 -16 c-3 -3 -12 -4 -19 -1 -8 3 -5 6 6 6 11 1 17 -2 13 -5z
m-1460 -27 c0 -8 -6 -14 -14 -14 -9 0 -10 4 -2 14 6 7 12 13 14 13 1 0 2 -6 2
-13z m1352 11 c-2 -2 -17 -14 -34 -28 l-30 -25 24 28 c14 15 29 27 34 27 6 0
8 -1 6 -2z m202 -35 c13 -16 12 -17 -3 -4 -10 7 -18 15 -18 17 0 8 8 3 21 -13z
m146 -15 c-3 -8 -6 -5 -6 6 -1 11 2 17 5 13 3 -3 4 -12 1 -19z m10 -55 c-3
-10 -5 -4 -5 12 0 17 2 24 5 18 2 -7 2 -21 0 -30z m-383 -11 c3 -5 -1 -9 -9
-9 -8 0 -12 4 -9 9 3 4 7 8 9 8 2 0 6 -4 9 -8z m-1413 -59 c-5 -10 -17 -27
-26 -38 -16 -19 -17 -19 -3 5 26 46 29 50 34 50 3 0 0 -8 -5 -17z m1676 -15
c-3 -7 -5 -2 -5 12 0 14 2 19 5 13 2 -7 2 -19 0 -25z m115 -10 c-8 -8 -9 -4
-5 13 4 13 8 18 11 10 2 -7 -1 -18 -6 -23z m-1975 -43 c0 -8 -4 -12 -9 -9 -5
3 -6 10 -3 15 9 13 12 11 12 -6z m1929 -55 c0 -12 -4 -16 -9 -11 -5 5 -6 14
-3 20 10 15 12 14 12 -9z m-1904 -7 c-6 -3 -9 -10 -6 -15 4 -7 2 -8 -5 -4 -9
6 -9 11 0 22 6 8 15 12 18 8 3 -4 0 -9 -7 -11z m1797 14 c-2 -1 -15 -11 -29
-22 l-25 -20 19 23 c11 12 24 22 29 22 6 0 8 -1 6 -3z m-1836 -22 c-3 -9 -8
-14 -10 -11 -3 3 -2 9 2 15 9 16 15 13 8 -4z m-38 -45 c10 -11 16 -20 13 -20
-3 0 -13 9 -23 20 -10 11 -16 20 -13 20 3 0 13 -9 23 -20z m1832 -66 c-3 -3
-12 -4 -19 -1 -8 3 -5 6 6 6 11 1 17 -2 13 -5z m-1249 -31 c-10 -2 -28 -2 -40
0 -13 2 -5 4 17 4 22 1 32 -1 23 -4z m789 -39 c-3 -3 -12 -4 -19 -1 -8 3 -5 6
6 6 11 1 17 -2 13 -5z m-37 -8 c0 -2 -7 -7 -16 -10 -8 -3 -12 -2 -9 4 6 10 25
14 25 6z m-883 -21 c0 -8 -4 -12 -9 -9 -5 3 -6 10 -3 15 9 13 12 11 12 -6z
m159 -1 c18 -14 18 -14 -6 -3 -31 14 -36 19 -24 19 6 0 19 -7 30 -16z m1211
-46 c-3 -8 -6 -5 -6 6 -1 11 2 17 5 13 3 -3 4 -12 1 -19z m-487 -7 c0 -5 -7
-12 -16 -15 -14 -5 -15 -4 -4 9 14 17 20 19 20 6z m-1263 -113 c-3 -7 -5 -2
-5 12 0 14 2 19 5 13 2 -7 2 -19 0 -25z m490 26 c-3 -3 -12 -4 -19 -1 -8 3 -5
6 6 6 11 1 17 -2 13 -5z m78 -89 c0 -25 -4 -30 -25 -30 -16 0 -26 6 -28 18 -6
30 6 49 30 45 18 -2 23 -9 23 -33z m655 21 c0 -2 -7 -7 -16 -10 -8 -3 -12 -2
-9 4 6 10 25 14 25 6z m-603 -78 c-3 -7 -5 -2 -5 12 0 14 2 19 5 13 2 -7 2
-19 0 -25z m-896 11 c50 -17 116 -85 134 -138 31 -91 13 -174 -53 -240 l-44
-44 36 -76 c51 -110 69 -197 63 -308 -4 -79 -9 -103 -36 -158 -18 -36 -54 -87
-80 -113 -39 -39 -63 -53 -131 -75 -46 -15 -109 -43 -141 -62 -33 -21 -71 -35
-90 -36 -19 0 -43 -4 -53 -8 -11 -4 -45 -1 -75 7 -33 8 -113 15 -191 16 -124
2 -139 4 -185 28 -109 57 -180 147 -211 268 -13 50 -15 92 -11 181 l5 117 -37
6 c-55 9 -116 58 -147 118 -22 44 -26 61 -22 118 4 80 35 134 99 177 85 56
221 36 271 -41 l21 -32 66 43 c136 90 323 131 467 104 27 -5 56 -12 65 -16 12
-4 19 4 28 35 15 52 74 117 115 129 44 13 97 13 137 0z m256 -61 c-2 -13 -4
-3 -4 22 0 25 2 35 4 23 2 -13 2 -33 0 -45z m1013 46 c36 -8 75 -22 88 -30 12
-8 28 -12 34 -8 6 4 8 3 4 -4 -3 -6 2 -13 13 -17 30 -9 100 -91 122 -143 31
-70 28 -178 -5 -246 -25 -50 -99 -136 -118 -136 -5 0 -7 -4 -3 -9 3 -5 0 -13
-6 -17 -8 -4 -9 -3 -5 4 4 7 3 12 -3 12 -5 0 -13 -4 -16 -10 -3 -5 -35 -19
-71 -30 -92 -28 -191 -27 -285 4 -41 13 -78 22 -83 19 -5 -4 -6 -1 -3 4 9 14
-40 46 -55 37 -6 -4 -8 -3 -5 2 3 6 -10 28 -29 49 -20 22 -33 35 -30 28 4 -6
2 -14 -3 -18 -6 -3 -8 5 -5 19 2 13 -3 40 -11 60 -8 19 -15 66 -15 103 0 224
242 386 490 327z m345 6 c3 -6 -1 -7 -9 -4 -18 7 -21 14 -7 14 6 0 13 -4 16
-10z m102 -22 c-3 -7 -5 -2 -5 12 0 14 2 19 5 13 2 -7 2 -19 0 -25z m-303 -4
c3 -8 2 -12 -4 -9 -6 3 -10 10 -10 16 0 14 7 11 14 -7z m1116 6 c0 -5 -2 -10
-4 -10 -3 0 -8 5 -11 10 -3 6 -1 10 4 10 6 0 11 -4 11 -10z m-833 -16 c-3 -3
-12 -4 -19 -1 -8 3 -5 6 6 6 11 1 17 -2 13 -5z m-940 -70 c-3 -3 -12 -4 -19
-1 -8 3 -5 6 6 6 11 1 17 -2 13 -5z m1373 -208 c0 -8 15 -34 33 -58 l34 -44
-24 -55 c-56 -126 -68 -178 -68 -305 l0 -121 -34 61 c-19 33 -69 95 -110 136
l-76 75 54 50 c59 55 127 153 157 227 19 47 34 62 34 34z m-1889 -68 c38 -76
106 -166 155 -206 l36 -30 -78 -79 c-44 -43 -96 -108 -117 -143 -29 -51 -36
-59 -33 -35 14 88 15 120 6 187 -11 79 -31 148 -62 215 l-20 42 36 47 c20 26
36 51 36 55 0 20 12 5 41 -53z m2337 -301 c4 -20 -25 -34 -39 -20 -14 14 1 45
20 41 9 -2 17 -11 19 -21z m-1655 -107 c85 -35 99 -47 90 -78 -5 -19 -12 -22
-57 -22 -59 0 -82 -11 -72 -35 5 -14 17 -16 65 -13 59 3 60 3 65 -26 4 -16 5
-30 4 -31 -20 -17 -123 -76 -156 -88 -64 -25 -89 -22 -111 14 -23 37 -41 133
-42 219 -1 84 17 104 87 97 28 -3 85 -19 127 -37z m685 13 c27 -35 -8 -264
-46 -306 -22 -25 -75 -17 -157 24 -95 47 -108 60 -96 92 10 25 14 27 71 27 58
0 61 1 58 23 -3 19 -10 22 -59 25 -48 3 -58 6 -67 27 -11 24 -9 26 41 52 122
62 224 77 255 36z m351 -46 c-2 -3 -15 10 -28 27 l-24 31 28 -27 c16 -15 27
-29 24 -31z m873 14 c93 -45 148 -120 148 -201 0 -51 -27 -116 -58 -144 -12
-10 -19 -23 -15 -29 3 -6 1 -7 -5 -3 -6 4 -28 -1 -49 -10 -60 -26 -159 -22
-224 8 -100 47 -151 115 -153 203 -1 90 60 167 154 194 53 15 152 7 202 -18z
m268 9 c0 -13 -7 -20 -20 -20 -13 0 -20 7 -20 20 0 13 7 20 20 20 13 0 20 -7
20 -20z m-2725 -31 c-9 -16 -21 -29 -27 -29 -6 0 -9 -3 -5 -6 3 -3 -6 -19 -21
-35 -14 -16 -27 -35 -28 -42 -2 -13 -38 -109 -54 -142 -5 -11 -14 -38 -21 -60
-6 -22 -17 -60 -25 -85 l-14 -45 6 55 c4 30 13 80 20 110 17 67 115 265 131
265 6 0 15 4 20 9 5 5 3 6 -4 2 -18 -10 -16 4 3 25 24 27 36 13 19 -22z m814
0 c37 -13 51 -35 51 -82 0 -51 -33 -87 -79 -87 -40 0 -63 18 -76 58 -9 30 12
88 38 107 26 18 26 18 66 4z m836 -91 c11 -24 12 -28 2 -16 -8 10 -16 16 -18
13 -3 -2 -5 5 -5 15 0 27 3 25 21 -12z m-328 -15 c-3 -10 -5 -4 -5 12 0 17 2
24 5 18 2 -7 2 -21 0 -30z m-1557 -125 c-5 -13 -14 -43 -20 -67 l-12 -44 -20
20 -20 21 33 46 c37 49 54 60 39 24z m2080 -90 l-24 -20 -7 24 c-3 12 -8 40
-12 60 l-5 36 36 -40 36 -40 -24 -20z m-1212 45 c-17 -38 -61 -104 -86 -126
-19 -17 -20 -17 -51 13 -17 17 -31 37 -31 43 0 9 120 74 177 96 2 1 -3 -11 -9
-26z m345 -2 c28 -16 69 -34 90 -41 20 -6 37 -14 37 -17 0 -3 -9 -20 -20 -38
-31 -51 -50 -52 -87 -8 -34 39 -89 133 -78 133 3 0 29 -13 58 -29z m754 -43
c-3 -8 -6 -5 -6 6 -1 11 2 17 5 13 3 -3 4 -12 1 -19z m-1545 -40 c-5 -5 -8 0
-6 14 4 40 7 44 11 19 3 -13 1 -27 -5 -33z m-461 -132 c0 -45 8 -112 19 -151
10 -38 17 -70 16 -70 -15 0 -90 -50 -123 -83 -92 -89 -126 -243 -88 -392 9
-36 19 -74 21 -86 5 -18 -3 -24 -68 -45 -58 -19 -95 -24 -178 -24 -99 0 -105
1 -103 20 2 11 -4 52 -13 92 -28 133 -124 243 -243 280 -31 10 -59 22 -63 28
-4 5 -8 56 -8 113 0 93 -2 103 -17 100 -14 -3 -20 -21 -29 -88 -19 -142 -20
-146 -62 -158 -21 -6 -53 -23 -71 -37 -34 -25 -35 -25 -65 -6 -17 11 -39 34
-49 53 -48 89 21 289 152 438 46 52 46 52 92 45 l46 -7 7 -68 c9 -100 62 -210
102 -210 7 0 28 -22 48 -50 35 -48 65 -65 103 -58 26 5 81 91 101 160 15 51
20 58 42 57 18 0 36 -14 62 -49 45 -59 95 -98 136 -106 40 -8 75 25 93 87 7
24 21 52 30 62 39 38 49 174 18 254 -19 51 -3 57 46 18 l45 -37 1 -82z m-153
107 c6 -16 14 -57 18 -93 6 -60 5 -63 -10 -51 -13 11 -16 27 -13 73 5 70 -9
88 -43 58 -29 -25 -33 -25 -21 -1 6 10 7 22 3 26 -4 5 1 5 11 2 9 -4 17 -2 17
3 0 21 28 8 38 -17z m-78 3 c0 -8 -31 -36 -41 -36 -5 0 -9 5 -9 11 0 5 4 8 9
5 5 -3 11 1 15 9 5 13 26 22 26 11z m2536 -8 c4 -6 3 -8 -4 -4 -6 3 -14 -3
-17 -15 -4 -11 -9 -18 -12 -16 -5 5 14 47 22 47 2 0 7 -5 11 -12z m-2513 -46
c-10 -10 -20 -17 -22 -16 -6 5 20 34 30 34 5 0 1 -8 -8 -18z m2234 -79 c-2
-16 -4 -3 -4 27 0 30 2 43 4 28 2 -16 2 -40 0 -55z m-2734 60 c-37 -4 -46 -10
-45 -33 0 -3 -6 -11 -14 -18 -12 -11 -14 -10 -14 4 0 33 30 54 74 52 l41 -1
-42 -4z m471 -8 c3 -8 1 -15 -4 -15 -6 0 -10 4 -10 9 0 5 -8 12 -17 14 -14 4
-13 5 3 6 12 0 24 -6 28 -14z m66 5 c0 -5 -5 -10 -11 -10 -5 0 -7 5 -4 10 3 6
8 10 11 10 2 0 4 -4 4 -10z m-257 -14 c9 -7 17 -21 17 -30 0 -10 4 -15 9 -12
22 14 6 -45 -16 -59 -22 -15 -26 -14 -53 5 -17 12 -30 24 -30 26 0 3 13 -4 29
-15 24 -17 31 -18 46 -7 23 16 12 70 -18 91 -12 8 -17 15 -12 15 6 0 18 -7 28
-14z m-230 -3 c-7 -2 -19 -2 -25 0 -7 3 -2 5 12 5 14 0 19 -2 13 -5z m375 0
c-10 -2 -26 -2 -35 0 -10 3 -2 5 17 5 19 0 27 -2 18 -5z m-159 -23 c-1 -3 3
-15 10 -27 10 -20 9 -22 -5 -16 -13 5 -15 3 -9 -8 5 -8 -1 -6 -13 5 -23 20
-19 45 4 25 12 -10 13 -9 8 5 -8 21 -30 21 -43 -1 -6 -11 -11 -13 -11 -5 0 22
24 40 43 33 10 -4 17 -9 16 -11z m3291 16 c0 -2 -9 -6 -20 -9 -11 -3 -18 -1
-14 4 5 9 34 13 34 5z m-3065 -17 c11 -17 -1 -21 -15 -4 -8 9 -8 15 -2 15 6 0
14 -5 17 -11z m3095 1 c0 -5 -2 -10 -4 -10 -3 0 -8 5 -11 10 -3 6 -1 10 4 10
6 0 11 -4 11 -10z m-3567 -7 c-7 -2 -19 -2 -25 0 -7 3 -2 5 12 5 14 0 19 -2
13 -5z m80 -7 c3 -8 -2 -16 -11 -19 -9 -3 -24 -8 -33 -11 -10 -4 -16 -2 -16 7
0 9 7 12 19 9 12 -3 18 1 18 12 0 20 16 21 23 2z m-148 -19 c-6 -21 -4 -23 29
-19 31 4 36 1 36 -17 0 -18 -3 -20 -19 -11 -11 5 -24 10 -30 10 -12 0 -15 -30
-3 -31 4 0 16 -2 26 -4 11 -2 28 0 37 6 16 8 17 6 7 -23 l-11 -31 -17 21 -18
22 2 -24 c2 -36 20 -48 43 -27 25 24 68 47 59 32 -4 -6 -3 -11 3 -11 26 0 19
22 -11 35 -18 9 -24 14 -13 12 11 -1 26 4 33 13 8 8 11 9 7 2 -4 -7 -4 -20 0
-30 5 -14 7 -14 15 -2 6 9 10 10 10 3 0 -14 -24 -39 -53 -55 -20 -10 -21 -10
-8 5 7 10 9 17 3 17 -5 0 -15 -7 -22 -15 -7 -8 -9 -15 -4 -15 4 0 3 -5 -3 -11
-28 -28 -83 16 -74 60 1 7 -2 10 -8 7 -13 -8 -34 66 -25 88 9 24 15 19 9 -7z
m499 5 c-13 -13 -22 -15 -30 -8 -9 8 -5 13 15 17 14 4 28 7 30 8 3 0 -4 -7
-15 -17z m3153 -14 c-3 -7 -5 -2 -5 12 0 14 2 19 5 13 2 -7 2 -19 0 -25z
m-3087 2 c0 -5 -4 -10 -10 -10 -5 0 -10 5 -10 10 0 6 5 10 10 10 6 0 10 -4 10
-10z m35 -27 c-4 19 -2 26 5 22 14 -9 13 -40 -2 -53 -7 -5 -26 -10 -42 -10
-18 0 -24 3 -15 9 10 6 9 12 -6 29 l-20 22 27 -12 c18 -8 24 -18 21 -28 -4
-10 -2 -13 6 -8 8 5 10 20 7 39 l-6 32 15 -35 c13 -30 14 -31 10 -7z m2672 5
c-3 -8 -6 -5 -6 6 -1 11 2 17 5 13 3 -3 4 -12 1 -19z m-3162 -8 c3 -5 1 -10
-4 -10 -6 0 -11 5 -11 10 0 6 2 10 4 10 3 0 8 -4 11 -10z m415 -22 c0 -4 -4
-8 -10 -8 -5 0 -10 5 -10 10 0 6 -6 10 -12 9 -7 -1 -20 -1 -28 0 -13 1 -13 3
-1 10 15 10 61 -6 61 -21z m917 -3 c0 -8 -4 -12 -9 -9 -5 3 -6 10 -3 15 9 13
12 11 12 -6z m1320 -37 c-3 -8 -6 -5 -6 6 -1 11 2 17 5 13 3 -3 4 -12 1 -19z
m-2302 -8 c13 -5 14 -9 5 -9 -8 0 -24 4 -35 9 -13 5 -14 9 -5 9 8 0 24 -4 35
-9z m5 -30 c13 -11 20 -20 16 -20 -4 0 -4 -5 0 -11 5 -8 9 -8 14 1 5 8 10 8
14 2 3 -5 0 -12 -8 -15 -7 -3 -29 10 -47 29 -35 36 -27 47 11 14z m89 4 c9 -8
-18 -59 -35 -63 -16 -3 -17 -1 -4 14 16 19 23 48 9 39 -5 -3 -9 1 -10 8 0 9
-2 10 -5 1 -3 -7 -12 -9 -20 -6 -26 10 -2 24 29 17 18 -3 34 -8 36 -10z m1745
0 c3 -8 2 -12 -4 -9 -6 3 -10 10 -10 16 0 14 7 11 14 -7z m-2074 -25 c0 8 2
12 5 9 3 -3 3 -13 -1 -22 -7 -19 -24 -11 -24 12 0 15 2 15 10 2 8 -12 10 -12
10 -1z m2505 1 c-3 -5 -21 -9 -38 -9 l-32 2 35 7 c19 4 36 8 38 9 2 0 0 -3 -3
-9z m-492 -15 c-3 -9 -8 -14 -10 -11 -3 3 -2 9 2 15 9 16 15 13 8 -4z m-2067
-40 c-10 -8 -24 -12 -30 -8 -6 3 -3 -2 6 -13 14 -15 20 -16 30 -5 11 10 9 11
-7 6 -16 -4 -15 -3 3 6 12 7 22 19 22 28 0 11 3 12 11 4 9 -9 8 -16 -5 -28 -9
-9 -16 -21 -16 -26 0 -23 -41 -7 -55 22 -16 30 -16 30 4 19 14 -7 21 -7 21 0
0 5 -5 10 -12 10 -6 0 -8 3 -5 6 4 4 14 1 24 -7 15 -13 16 -12 9 6 -6 17 -5
18 6 7 11 -11 10 -16 -6 -27z m1241 -52 c-3 -10 -5 -4 -5 12 0 17 2 24 5 18 2
-7 2 -21 0 -30z m-359 -14 c34 -17 62 -34 62 -40 0 -5 6 -9 13 -9 23 0 104
-93 142 -162 38 -70 65 -155 64 -198 -1 -14 -7 2 -14 35 -18 81 -33 117 -45
110 -5 -3 -7 0 -5 8 3 7 -8 32 -25 55 -16 23 -30 46 -30 52 0 5 -4 10 -8 10
-5 0 -20 9 -33 21 -74 63 -92 74 -139 84 -19 4 -46 14 -59 22 -13 8 -21 10
-17 5 4 -7 -6 -9 -29 -5 -20 3 -61 -2 -97 -12 -69 -19 -110 -55 -135 -117 -9
-21 -20 -35 -26 -31 -5 3 -7 1 -4 -5 4 -5 0 -34 -8 -64 l-15 -53 5 60 c7 76
15 106 26 99 5 -3 6 2 3 11 -13 32 80 124 153 151 56 21 145 10 221 -27z m129
26 c0 -8 -4 -12 -9 -9 -5 3 -6 10 -3 15 9 13 12 11 12 -6z m1607 -3 c6 -3 16
-7 23 -8 6 -1 22 -10 35 -19 l23 -17 -25 9 c-63 21 -244 -8 -302 -48 -14 -11
-31 -19 -37 -19 -6 0 -11 -5 -11 -11 0 -6 -7 -9 -14 -6 -10 4 -13 1 -10 -8 3
-8 -3 -16 -16 -20 -13 -4 -19 -12 -16 -20 3 -9 0 -12 -8 -9 -7 3 -20 -6 -29
-20 -9 -14 -27 -35 -40 -48 -20 -21 -68 -109 -80 -148 -2 -8 -3 -1 -1 15 6 50
71 170 122 225 55 60 185 145 208 136 8 -3 12 -2 9 4 -3 5 4 12 17 14 13 3 32
7 43 10 24 5 94 -2 109 -12z m-481 -37 c-7 -21 -12 -19 -10 4 0 11 5 18 9 15
4 -3 5 -11 1 -19z m-976 -62 c-3 -10 -5 -4 -5 12 0 17 2 24 5 18 2 -7 2 -21 0
-30z m1598 -4 c11 -16 1 -19 -13 -3 -7 8 -8 14 -3 14 5 0 13 -5 16 -11z
m-2055 -44 c0 -2 -9 -3 -19 -2 -11 0 -18 5 -15 9 4 6 34 0 34 -7z m47 9 c-3
-3 -12 -4 -19 -1 -8 3 -5 6 6 6 11 1 17 -2 13 -5z m2032 -34 c0 -10 -3 -8 -9
5 -12 27 -12 43 0 25 5 -8 9 -22 9 -30z m-154 10 c3 -6 -1 -7 -9 -4 -18 7 -21
14 -7 14 6 0 13 -4 16 -10z m-1750 -18 c-3 -3 -11 0 -18 7 -9 10 -8 11 6 5 10
-3 15 -9 12 -12z m1804 -36 c-3 -3 -11 5 -18 17 -13 21 -12 21 5 5 10 -10 16
-20 13 -22z m-1466 9 c-3 -9 -8 -14 -10 -11 -3 3 -2 9 2 15 9 16 15 13 8 -4z
m1574 -22 c-3 -10 -5 -4 -5 12 0 17 2 24 5 18 2 -7 2 -21 0 -30z m-1593 1 c3
-8 2 -12 -4 -9 -6 3 -10 10 -10 16 0 14 7 11 14 -7z m-1357 -14 c136 -61 211
-241 151 -360 -30 -58 -62 -80 -130 -89 -96 -13 -204 28 -255 97 -45 62 -57
96 -57 172 -1 91 28 154 84 182 48 25 152 24 207 -2z m3730 14 c-3 -3 -12 -4
-19 -1 -8 3 -5 6 6 6 11 1 17 -2 13 -5z m68 -12 c-3 -3 -11 0 -18 7 -9 10 -8
11 6 5 10 -3 15 -9 12 -12z m-848 -89 c-3 -10 -5 -4 -5 12 0 17 2 24 5 18 2
-7 2 -21 0 -30z m603 23 c0 -3 -4 -8 -10 -11 -5 -3 -10 -1 -10 4 0 6 5 11 10
11 6 0 10 -2 10 -4z m-40 -36 c-6 -11 -13 -20 -16 -20 -2 0 0 9 6 20 6 11 13
20 16 20 2 0 0 -9 -6 -20z m-2852 -55 c-3 -3 -9 2 -12 12 -6 14 -5 15 5 6 7
-7 10 -15 7 -18z m1739 -47 c-3 -7 -5 -2 -5 12 0 14 2 19 5 13 2 -7 2 -19 0
-25z m-140 -40 c-2 -13 -4 -3 -4 22 0 25 2 35 4 23 2 -13 2 -33 0 -45z m593
43 c0 -5 -7 -12 -16 -15 -14 -5 -15 -4 -4 9 14 17 20 19 20 6z m-1663 -83 c-3
-7 -5 -2 -5 12 0 14 2 19 5 13 2 -7 2 -19 0 -25z m130 -20 c-3 -8 -6 -5 -6 6
-1 11 2 17 5 13 3 -3 4 -12 1 -19z m1552 15 c14 11 14 10 2 -6 -10 -13 -17
-15 -27 -6 -8 6 -14 14 -14 17 0 3 5 1 12 -6 9 -9 15 -9 27 1z m-2132 -20 c0
-9 -4 -10 -14 -2 -7 6 -13 12 -13 14 0 1 6 2 13 2 8 0 14 -6 14 -14z m2039 -5
c4 -7 4 -10 -1 -6 -4 4 -15 2 -24 -5 -14 -11 -14 -10 -2 6 16 20 18 21 27 5z
m74 -12 c0 -2 -8 -10 -17 -17 -16 -13 -17 -12 -4 4 13 16 21 21 21 13z m-129
-36 c-13 -11 -28 -20 -35 -20 -6 0 3 9 19 19 39 25 46 25 16 1z m-1884 4 c-3
-3 -12 -4 -19 -1 -8 3 -5 6 6 6 11 1 17 -2 13 -5z m1922 -38 c9 -10 7 -17 -6
-27 -16 -12 -17 -12 -6 2 10 12 10 18 1 27 -7 7 -9 12 -6 12 3 0 11 -6 17 -14z
m-1814 -6 c3 -6 -1 -7 -9 -4 -18 7 -21 14 -7 14 6 0 13 -4 16 -10z m142 -6
c-3 -3 -12 -4 -19 -1 -8 3 -5 6 6 6 11 1 17 -2 13 -5z m1546 -1 c-7 -2 -19 -2
-25 0 -7 3 -2 5 12 5 14 0 19 -2 13 -5z m-1388 -13 c-3 -5 -12 -10 -18 -10 -7
0 -6 4 3 10 19 12 23 12 15 0z m-375 -6 c0 -8 -19 -13 -24 -6 -3 5 1 9 9 9 8
0 15 -2 15 -3z m127 -60 c-3 -3 -12 -4 -19 -1 -8 3 -5 6 6 6 11 1 17 -2 13 -5z
m1550 -10 c-3 -3 -12 -4 -19 -1 -8 3 -5 6 6 6 11 1 17 -2 13 -5z"/>
<path d="M2165 5469 c-4 -6 -5 -12 -2 -15 2 -3 7 2 10 11 7 17 1 20 -8 4z"/>
<path d="M1905 4526 c-32 -14 -65 -54 -65 -79 0 -7 18 -21 40 -31 21 -9 59
-39 83 -66 41 -46 46 -48 59 -32 27 30 38 60 38 101 0 33 -7 48 -32 75 -38 40
-80 51 -123 32z"/>
<path d="M899 4307 c-79 -53 -66 -167 24 -214 16 -8 30 -13 32 -11 1 2 10 27
20 57 10 29 34 72 53 93 l36 40 -32 29 c-40 36 -86 38 -133 6z"/>
<path d="M1791 4141 c-17 -13 -22 -24 -17 -36 6 -17 7 -17 26 0 15 14 29 16
65 12 48 -7 59 5 28 29 -25 19 -74 17 -102 -5z"/>
<path d="M1243 4050 c-29 -12 -59 -58 -46 -71 6 -6 18 0 33 16 17 18 34 25 62
25 26 0 38 4 38 14 0 25 -45 33 -87 16z"/>
<path d="M1825 3998 c-49 -26 -60 -86 -24 -132 27 -35 90 -37 113 -4 46 66
-24 172 -89 136z m63 -39 c4 -19 -27 -34 -41 -20 -14 14 0 43 20 39 10 -2 19
-10 21 -19z"/>
<path d="M1277 3893 c-25 -29 -30 -67 -13 -107 27 -65 104 -72 133 -11 18 38
13 70 -18 108 -24 32 -77 37 -102 10z m88 -33 c0 -27 -22 -39 -31 -16 -8 22 3
49 19 43 6 -2 12 -14 12 -27z"/>
<path d="M1593 3792 c-32 -10 -63 -39 -63 -59 0 -26 11 -38 50 -60 38 -21 51
-62 29 -89 -17 -20 -72 -17 -102 6 -49 39 -68 10 -20 -34 36 -34 83 -41 130
-20 21 9 62 18 91 18 47 1 57 5 83 34 29 33 39 82 17 82 -7 0 -23 -15 -35 -34
-23 -36 -67 -54 -88 -36 -25 21 -24 49 6 86 63 80 10 137 -98 106z"/>
<path d="M3105 4542 c-36 -12 -54 -25 -63 -45 -20 -42 -7 -76 54 -132 46 -43
54 -55 54 -86 0 -48 -33 -79 -84 -79 -39 0 -74 28 -120 94 -16 24 -20 26 -33
14 -12 -13 -12 -20 3 -56 19 -50 61 -87 113 -103 32 -9 48 -8 90 6 48 16 54
16 97 -1 40 -15 53 -16 91 -5 51 13 89 39 115 79 22 33 24 82 3 82 -8 0 -21
-12 -29 -27 -19 -38 -54 -68 -94 -81 -88 -30 -164 75 -95 131 73 59 113 106
113 129 0 42 -35 75 -91 87 -63 14 -64 14 -124 -7z"/>
<path d="M4690 3787 c-15 -7 -26 -23 -28 -39 -3 -29 22 -88 38 -88 13 0 13
-36 0 -61 -21 -39 -80 -16 -116 47 -9 15 -15 16 -24 7 -17 -15 1 -61 36 -94
20 -18 37 -24 79 -24 29 -1 60 -7 69 -14 8 -7 36 -13 62 -13 49 0 85 19 112
60 13 19 12 22 -2 28 -11 4 -26 -2 -41 -16 -30 -28 -96 -38 -114 -17 -7 9 -11
28 -9 44 2 21 12 32 40 45 49 23 73 59 58 87 -22 43 -116 71 -160 48z"/>
<path d="M1961 3294 c0 -11 3 -14 6 -6 3 7 2 16 -1 19 -3 4 -6 -2 -5 -13z"/>
<path d="M742 2052 c-9 -7 -12 -72 -10 -293 l3 -284 58 -3 57 -3 0 96 0 95 70
0 c148 0 223 68 224 201 0 85 -30 135 -101 170 -41 20 -66 24 -168 26 -66 2
-126 -1 -133 -5z m233 -112 c15 -6 32 -24 40 -42 31 -75 -19 -138 -111 -138
l-54 0 0 95 0 95 49 0 c27 0 61 -4 76 -10z"/>
<path d="M1610 2050 c-13 -7 -16 -49 -18 -277 -1 -147 1 -276 4 -285 4 -14 17
-18 60 -18 l54 0 0 289 c0 254 -2 290 -16 295 -23 9 -66 7 -84 -4z"/>
<path d="M2645 2038 c-3 -7 -4 -137 -3 -288 l3 -275 55 0 55 0 5 138 c5 131 6
140 29 158 31 25 77 24 99 -1 14 -17 18 -47 22 -158 l5 -137 55 0 55 0 0 160
c0 179 -8 208 -70 241 -45 24 -136 16 -170 -16 l-24 -23 -3 104 -3 104 -53 3
c-36 2 -54 -1 -57 -10z"/>
<path d="M3805 2026 c-71 -31 -114 -109 -100 -182 11 -63 65 -107 168 -139
112 -34 134 -55 107 -104 -25 -48 -109 -50 -174 -6 -47 32 -69 31 -96 -2 -33
-43 -23 -64 50 -101 61 -32 70 -33 145 -30 99 5 156 36 186 101 49 109 -7 201
-150 246 -87 28 -111 45 -111 81 0 55 70 66 159 25 59 -28 70 -25 91 26 11 25
10 32 -5 49 -40 45 -201 66 -270 36z"/>
<path d="M4225 1991 c-15 -6 -21 -20 -25 -57 -5 -47 -6 -49 -37 -52 -25 -2
-34 -9 -39 -27 -9 -35 12 -65 45 -65 l29 0 3 -129 c4 -112 7 -132 24 -151 31
-34 70 -50 124 -50 67 0 104 17 97 44 -3 12 -6 29 -6 39 0 14 -9 17 -48 17
-26 0 -53 5 -60 12 -8 8 -12 48 -12 115 l0 102 58 3 57 3 3 43 3 42 -60 0 -61
0 0 44 c0 64 -7 76 -44 75 -17 0 -40 -4 -51 -8z"/>
<path d="M1302 1889 c-87 -17 -137 -80 -148 -186 -16 -157 75 -250 234 -241
57 3 76 9 106 31 20 16 36 32 36 37 0 5 -11 21 -23 36 l-24 27 -45 -21 c-73
-36 -135 -25 -163 27 -8 17 -15 32 -15 36 0 3 58 5 129 5 152 0 157 3 148 81
-15 127 -108 193 -235 168z m111 -110 c34 -42 24 -49 -68 -49 l-86 0 16 31 c9
16 26 34 38 39 32 14 79 3 100 -21z"/>
<path d="M2390 1890 c-51 -9 -97 -39 -128 -84 -22 -32 -27 -53 -30 -112 -6
-114 25 -180 102 -215 79 -36 200 -17 250 40 16 18 17 25 7 44 -23 44 -46 50
-87 22 -80 -54 -153 -21 -162 75 -6 64 11 104 53 124 35 17 54 14 98 -17 24
-16 32 -17 57 -7 48 20 56 37 34 67 -37 50 -120 77 -194 63z"/>
<path d="M3236 1889 c-90 -21 -148 -105 -149 -214 0 -33 5 -77 12 -97 15 -44
65 -91 116 -108 55 -18 168 -9 201 16 48 35 52 50 22 81 l-27 27 -42 -23 c-53
-30 -113 -24 -146 14 -44 51 -36 55 107 55 128 0 131 0 141 24 15 31 -4 119
-34 163 -37 54 -121 80 -201 62z m101 -97 c12 -9 25 -28 28 -42 l6 -25 -84 3
c-78 3 -84 5 -80 23 8 28 51 59 82 59 14 0 36 -8 48 -18z"/>
<path d="M4649 1891 c-105 -15 -169 -95 -169 -209 0 -142 77 -222 215 -222 83
0 140 30 180 95 26 42 30 58 30 119 0 60 -4 79 -28 118 -45 78 -127 113 -228
99z m91 -106 c39 -20 53 -48 54 -110 1 -108 -105 -163 -175 -89 -34 37 -39
129 -9 167 37 47 81 57 130 32z"/>
<path d="M5170 1893 c-38 -12 -63 -29 -75 -53 l-14 -25 -1 33 0 33 -57 -3
c-48 -2 -58 -6 -57 -20 0 -10 1 -101 2 -203 l2 -185 54 0 54 0 4 131 c3 131 3
131 32 156 25 21 36 24 72 19 48 -6 54 1 54 65 0 33 -4 41 -26 49 -14 6 -26
10 -27 9 -1 0 -9 -3 -17 -6z"/>
<path d="M5425 1895 c-5 -2 -22 -6 -37 -9 -38 -8 -85 -51 -110 -100 -27 -52
-30 -175 -6 -221 37 -69 104 -105 198 -105 67 0 115 16 144 48 18 20 18 23 2
47 -24 36 -39 39 -77 16 -62 -38 -148 -18 -167 38 l-11 30 137 3 137 3 3 45
c6 80 -29 155 -86 184 -28 14 -109 27 -127 21z m77 -105 c14 -11 28 -29 31
-40 5 -19 1 -20 -79 -20 -94 0 -103 8 -58 54 32 31 71 34 106 6z"/>
<path d="M1790 1868 c-1 -7 -1 -82 0 -167 1 -125 4 -160 18 -183 35 -60 140
-78 205 -34 34 23 35 23 40 5 5 -17 13 -20 59 -17 l53 3 0 200 0 200 -57 3
-56 3 -4 -140 c-3 -157 -13 -181 -72 -181 -64 0 -76 31 -76 196 l0 124 -55 0
c-37 0 -55 -4 -55 -12z"/>
<path d="M1640 1249 c-32 -13 -68 -47 -86 -81 -23 -44 -18 -139 9 -179 45 -68
143 -89 218 -47 41 23 49 47 24 68 -13 11 -23 9 -54 -8 -52 -29 -77 -28 -112
7 -33 34 -39 92 -14 140 23 46 83 56 128 21 25 -20 25 -20 48 -1 l24 19 -23
25 c-23 24 -82 48 -118 46 -11 0 -30 -5 -44 -10z"/>
<path d="M3680 1238 c-63 -33 -83 -66 -87 -141 -7 -116 58 -181 172 -175 102
6 155 63 155 168 0 79 -38 135 -109 159 -50 16 -82 14 -131 -11z m138 -68 c27
-25 36 -60 29 -108 -12 -76 -96 -107 -154 -58 -24 21 -28 31 -28 79 0 45 5 60
24 81 31 33 96 36 129 6z"/>
<path d="M4152 1247 c-43 -13 -88 -66 -103 -119 -14 -52 7 -132 43 -166 80
-74 230 -48 272 47 23 51 18 140 -10 179 -26 34 -99 72 -139 71 -16 -1 -45 -6
-63 -12z m132 -88 c30 -35 34 -84 11 -129 -46 -89 -175 -52 -175 50 0 43 21
95 42 103 7 3 32 6 55 6 34 1 46 -4 67 -30z"/>
<path d="M2039 1223 c-33 -86 -99 -279 -99 -291 0 -9 10 -12 32 -10 27 2 34 9
42 36 9 32 9 32 72 32 63 0 63 0 72 -32 7 -29 12 -33 43 -33 19 0 33 5 32 10
-1 6 -26 79 -55 163 l-52 152 -38 0 c-33 0 -40 -4 -49 -27z m76 -146 l7 -37
-42 0 c-36 0 -41 2 -35 18 4 9 14 39 23 66 l16 49 12 -29 c7 -16 15 -46 19
-67z"/>
<path d="M2360 1084 l0 -165 33 3 32 3 5 109 5 109 39 -71 c53 -96 71 -97 123
-4 l38 67 5 -105 5 -105 33 -3 32 -3 0 165 0 166 -42 0 -43 0 -44 -82 -43 -81
-32 51 c-17 29 -39 65 -48 82 -15 26 -23 30 -58 30 l-40 0 0 -166z"/>
<path d="M2864 1237 c-2 -7 -3 -80 -2 -162 l3 -150 108 -3 107 -3 0 31 0 30
-75 0 -75 0 0 40 0 40 65 0 65 0 0 30 0 30 -65 0 -65 0 0 35 0 35 70 0 70 0 0
30 0 30 -100 0 c-73 0 -102 -4 -106 -13z"/>
<path d="M3220 1084 l0 -165 33 3 c32 3 32 4 35 61 3 51 5 57 25 57 17 0 29
-14 52 -60 27 -55 32 -60 62 -60 42 0 42 15 3 78 l-29 47 24 20 c55 47 57 115
4 159 -28 24 -39 26 -120 26 l-89 0 0 -166z m168 67 c4 -40 -9 -51 -60 -51
l-38 0 0 46 0 45 48 -3 c45 -3 47 -4 50 -37z"/>
<path d="M4512 1088 l3 -163 33 -3 32 -3 0 107 0 106 83 -103 c63 -80 89 -105
110 -107 l27 -3 0 165 0 166 -35 0 -35 0 0 -101 0 -101 -77 100 c-70 91 -81
101 -111 101 l-32 1 2 -162z"/>
</g>
</svg>
